<?xml version="1.0" encoding="UTF-8"?>
<svg width="14px" height="11px" viewBox="0 0 14 11" version="1.1" xmlns="http://www.w3.org/2000/svg" xmlns:xlink="http://www.w3.org/1999/xlink">
    <!-- Generator: Sketch 40.3 (33839) - http://www.bohemiancoding.com/sketch -->
    <title>list-icon-active</title>
    <desc>Created with Sketch.</desc>
    <defs>
        <path d="M0,0 L3,0 L3,3 L0,3 L0,0 Z M0,4 L3,4 L3,7 L0,7 L0,4 Z M0,8 L3,8 L3,11 L0,11 L0,8 Z M4,1 L14,1 L14,2 L4,2 L4,1 Z M4,5 L14,5 L14,6 L4,6 L4,5 Z M4,9 L14,9 L14,10 L4,10 L4,9 Z" id="path-1"></path>
        <mask id="mask-2" maskContentUnits="userSpaceOnUse" maskUnits="objectBoundingBox" x="0" y="0" width="14" height="11" fill="white">
            <use xlink:href="#path-1"></use>
        </mask>
    </defs>
    <g id="Page-1" stroke="none" stroke-width="1" fill="none" fill-rule="evenodd">
        <g id="list-icon-active" transform="translate(-3.000000, -5.000000)">
            <rect id="Rectangle-2" x="0" y="0" width="20" height="20"></rect>
            <g id="Group-7" transform="translate(3.000000, 5.000000)" stroke="#FFFFFF" stroke-width="2">
                <use id="Combined-Shape" mask="url(#mask-2)" xlink:href="#path-1"></use>
            </g>
        </g>
    </g>
</svg>